<?xml version="1.0" encoding="utf-8"?>
<!-- Svg Vector Icons : http://www.onlinewebfonts.com/icon -->
<!DOCTYPE svg PUBLIC "-//W3C//DTD SVG 1.1//EN" "http://www.w3.org/Graphics/SVG/1.1/DTD/svg11.dtd">
<svg version="1.1" xmlns="http://www.w3.org/2000/svg" xmlns:xlink="http://www.w3.org/1999/xlink" x="0px" y="0px" viewBox="0 0 256 256" enable-background="new 0 0 256 256" xml:space="preserve">
<metadata> Svg Vector Icons : http://www.onlinewebfonts.com/icon </metadata>
<g><g><g><path fill="#000000" d="M100.4,59.7c-2,1-4.7,3.6-6.2,6.1c-0.7,1.3-1.9,2-5.7,3.8c-5.6,2.6-10.3,3.8-18.5,5.1c-7.3,1.1-26,2-31.7,1.6c-4.6-0.3-6.3,0.1-7,1.8c-0.3,0.5-0.7,4-1,7.8c-0.9,11.9-3,21.7-5.4,25c-5.1,7-7.1,14.1-7.9,28.2c-0.2,4.4-0.5,5.7-1.4,7.2c-1.5,2.6-2.5,6.9-2.5,10.8c0,2.7-0.3,4.4-1.5,7.7c-1.4,3.8-1.5,4.7-1.5,9.8c0,5.1,0.1,5.8,1.2,8.1c2.4,5.1,4.7,6.8,13.8,9.9c15.3,5.3,35.6,5.8,61.2,1.4c6.2-1.1,7.7-1.1,17.9-1l11.1,0.1l4.2,1.6l4.2,1.6l34.3,0.1c28.6,0.1,35.1,0,39.6-0.6c13.6-1.8,26.2-6.4,37-13.7c5.3-3.6,8.4-6.5,10.1-9.8c1.2-2.2,1.3-3,1.3-6.9c0-5.1-0.4-6.1-5-12.4c-3.4-4.7-7.2-8.3-10.7-10c-1.5-0.7-8.2-2.7-15.5-4.5c-18-4.5-27.1-7.2-31.4-9.3c-9.3-4.4-21.2-13.6-36.4-27.8c-4.6-4.4-7.7-7.7-12-13.5c-11.2-14.8-21.1-25.5-25.6-27.8C106.6,58.8,102.8,58.6,100.4,59.7z M106.9,67.5c2.5,1.7,4.3,3.4,9.2,9c4.5,5.1,12.3,14.8,12.3,15.3c0,0.3-7.9,4.3-8.1,4.1c0-0.1-0.9-2.1-1.8-4.5c-3-7.5-3.6-8.9-5.4-12.1c-2.4-4.1-6.1-8-9.1-9.8l-2.6-1.4l1.1-0.8C103.9,66,104.8,66.1,106.9,67.5z M100.7,76.1l1.5,1.1l-1.4,0.7c-0.7,0.4-1.7,1.2-2.1,1.9c-0.7,1.2-1,1.3-15.5,3.2c-16.8,2.2-16.4,2.2-16.4,1.4c0-1.3,1-1.7,6.7-2.6c7.6-1.3,12.6-2.7,17.8-5.1C95.9,74.4,98.1,74.2,100.7,76.1z M61.7,83.4c0,0.2-0.6,2.4-1.3,5c-1.1,4.1-1.2,5.5-1.3,12.8c0,9,0.6,12.4,3.4,18.7c2.9,6.4,8.8,14,14.3,18.6c1.6,1.3,2.7,2.4,2.6,2.5c-0.7,0.6-6.6-1.9-20.2-9c-8.5-4.4-16.6-8.4-18-8.8c-3.2-0.9-9.4-1-12.3,0c-1.3,0.4-2.4,0.6-2.5,0.5c-0.1-0.1,0.3-1.4,0.9-2.9l1.1-2.7l6.3-3.5l6.3-3.6l2.2,1.2c1.2,0.7,3.5,2.5,5.1,4.2c2.9,3,3.1,3.1,5,1.4c1.3-1.3,1.3-1.9-0.1-1.5c-1,0.3-1.6-0.1-3.8-2.5c-1.4-1.6-3.2-3.1-3.8-3.5c-1.2-0.6-1.2-0.7-1.1-5c0.1-5.1,1.7-10,3.7-11.7c1.5-1.3,1.3-3.2-0.4-3.3c-1.6-0.2-2.6,1.1-1.9,2.3c0.5,0.7,0.3,1.4-0.9,4.1c-1.4,3.1-1.5,3.2-2.1,2.3c-1-1.4-3.1-1.1-3.3,0.6c-0.1,0.9,0.1,1.4,0.9,1.8c1,0.6,1,0.6-0.6,2c-2.5,2.2-4.3,4.9-3.8,5.4c0.3,0.3,1.1-0.3,2.2-1.6c1-1.2,1.9-2.1,2.2-2.1c0.6,0,0.6,1.6,0,3c-0.7,1.4-8.6,6.9-8.1,5.6c2.7-6.9,4.6-15.6,5.2-24.5l0.4-4.6l10.9-0.5c6-0.3,11.4-0.5,12-0.6C61.2,83,61.7,83.1,61.7,83.4z M111.5,93.7c0.9,2.5,1.7,4.6,1.7,4.7c0,0.7-3-0.7-4.7-2.2c-1-0.9-2.2-1.6-2.8-1.6c-0.6,0-3.2,2.1-6.6,5.2c-6.9,6.3-11.2,9.9-17,13.9c-4.2,2.9-12.4,7.8-13,7.8c-0.6,0-3.2-6.3-4.2-10c-1-3.7-1.5-14-0.8-14.8c0.4-0.4,34.4-6.7,35.9-6.7c0.6,0,1.2,0.2,1.3,0.5c0.5,0.8,5.2,0.2,6.6-0.9c0.6-0.5,1.3-0.8,1.5-0.6C109.6,89.1,110.5,91.2,111.5,93.7z M140.9,106.4c0.3,1.2-7.5,6.7-9.4,6.7c-0.3,0-0.7-0.5-0.9-1.1c-0.3-1.2-4.5-4.5-6.3-4.9c-1.2-0.3-1.1-0.5,3.3-5.2l4.5-5l4.3,4.5C138.8,103.8,140.8,106.1,140.9,106.4z M119.9,103.2c-1.3,1.9-1.5,4.9-0.7,7.3c0.5,1.4,0.2,2-8.6,15.9c-6.5,10.2-9.4,14.6-10.1,14.7c-0.6,0.1-3,0.5-5.4,0.7c-4,0.4-4.5,0.4-6-0.5c-2.4-1.4-7.8-5.6-10.9-8.4l-2.7-2.5l5.3-3.3c9.5-5.9,17.1-12.1,24.6-19.8l4-4.1l4.1-0.1c2.9,0,4.5-0.3,5.5-0.8C121,101.2,121.1,101.4,119.9,103.2z M152.1,116.1c2.5,2.3,4.7,4.3,4.7,4.5c0,0.6-1.6,1.8-3,2.3c-1.2,0.5-1.5,0.4-2.3-0.6c-1.3-1.5-3.9-3.1-5.2-3.1c-0.7,0-1.2-0.4-1.3-1.2c-0.3-1.2,0-5.1,0.6-6.5C145.8,110.6,145.8,110.6,152.1,116.1z M140.9,121.8c0.5,0.8,0.3,1.3-1.1,3.6c-1.8,3.1-4.1,8.3-5,11.5l-0.6,2.2l-3.3-0.4c-1.8-0.2-6.3-0.3-10.1-0.3l-6.8,0.1l6.8-10.2l6.8-10.2h2.7c2.2,0,3.3-0.3,6.1-1.8l3.4-1.7l0.3,3C140.2,119.4,140.6,121.2,140.9,121.8z M171.1,131c0.4,0.4-1.1,1.1-2.3,1.1c-0.7,0-1.4-0.2-1.7-0.5c-0.2-0.2-1.7-0.6-3.1-0.7l-2.6-0.3v-2.9c0-1.6,0.1-3,0.3-3.1C161.8,124.4,170,129.9,171.1,131z M40.8,128.2c1.2,0.4,7.7,3.7,14.6,7.3c16.7,8.8,18.3,9.5,23.9,10.6c6.5,1.4,16.9,1.1,25.5-0.7c8.9-1.8,13.9-2.3,20.6-2c10.1,0.5,16,2.4,25.2,8.1c5.7,3.6,8.7,4.9,13.7,6c4.5,1,12.8,0.6,17.2-0.8c6.3-1.9,12.9-6.2,17.7-11.2l2.4-2.5l12.3,3.1c10.7,2.6,12.6,3.2,14.8,4.8c2.4,1.5,6.4,6,6.4,7.1c0,0.5-4,2.9-8.1,5c-3.2,1.6-9,3.4-13.4,4c-4.6,0.7-15.8,0.4-19.6-0.7c-3.7-1-8.6-0.8-11.4,0.6c-2.1,1.1-3.4,2.1-6.6,5.6c-3.2,3.5-7.6,3.6-13.1,0.3c-8.9-5.1-15.4-7.3-25.2-8.1c-6.5-0.6-15.8,0-23,1.3c-3.1,0.6-6.6,0.8-13.2,0.8h-9l-8.3-2.1c-17-4.5-31.8-6.7-49.7-7.6c-4.8-0.2-6.3-0.5-6.8-1.1c-0.3-0.4-1.3-2.4-2.2-4.5l-1.6-3.7l0.3-5.8c0.2-3.2,0.5-7.2,0.7-8.9l0.3-3.2l2-0.9C31.5,126.9,36.6,126.7,40.8,128.2z M156.3,128.8c0,1.8,0.9,4.3,1.9,5.4c0.8,0.9,0.8,1.1-1.3,7.2c-1.2,3.4-2.2,6.3-2.3,6.4c-0.1,0.1-1.2-0.5-2.4-1.3c-1.2-0.7-3.3-1.9-4.6-2.6c-1.3-0.7-2.5-1.5-2.5-1.8c0-1.3,2-7.7,3.5-10.8c1.3-2.7,1.8-3.3,2.4-3.2c0.5,0.1,1.6,0,2.5-0.1C156.1,127.4,156.3,127.4,156.3,128.8z M182.2,137.3c0,0.6-0.4,0.5-1.9-0.4c-1.9-1.1-1.7-1.7,0.3-0.7C181.5,136.6,182.2,137.1,182.2,137.3z M174.5,137.9c1.3,2.2,3.1,3.5,6,4.5l1.8,0.6l-0.3,2.4c-0.1,1.3-0.3,3.2-0.3,4.3c0,1.7-0.1,1.9-1.4,2.4c-3.2,1.1-9,1.6-12.5,1.1c-1.8-0.3-3.4-0.6-3.5-0.7c-0.1-0.1,0.7-3.5,1.6-7.5l1.7-7.4l2.7-0.8c1.5-0.4,2.8-0.8,2.9-0.8C173.3,135.9,173.9,136.8,174.5,137.9z M193.6,144.1l-2.3,2.1l-0.1-1.5c-0.2-1.8-0.1-1.9,1.9-2.4C195.8,141.6,195.9,141.9,193.6,144.1z M22,155.9c1.9,4.4,4.6,5.9,10.2,5.9c12.7,0,32.4,2.8,49,7c14.2,3.6,21.6,3.9,35.1,1.7c4.8-0.8,8-1,15.5-1c12.9,0,17.6,1.1,26.8,6.4c5.5,3.2,8,4,11.8,4c4.2,0,7.8-1.9,10.7-5.6c2.9-3.7,6-4.5,12.5-3.2c14.7,3,28.5,0.7,40.7-6.6c4.1-2.5,4.5-2.5,4.5,0.6v1.8l-6.1,3c-6.7,3.3-13.5,5.7-20,7c-3.5,0.7-4.2,0.7-5.1,0.1c-3.2-2-4.3-2.3-8.4-2.3c-7.1,0-12.2,1.9-17.2,6.6c-1.7,1.5-3.7,3.9-4.5,5.2l-1.5,2.5h-2.4c-2.3,0-2.8-0.3-10-5c-11.8-7.7-15.6-9.1-24-9.1c-5.8,0-8.2,0.6-18.5,4.6l-7.7,2.9L95.3,183c-31.3,0.7-37.6,0.4-48.5-2c-10.2-2.2-17.9-6-22.8-11.1c-3.1-3.3-4.3-5.3-3.8-6.8c0.2-0.6,0.3-3,0.2-5.3c0-2.3,0-4.3,0.2-4.3C20.8,153.5,21.4,154.6,22,155.9z M23.7,176.4c9.4,7.2,25.5,11.7,43.1,11.9c6.6,0.1,2.6,0.7-6.9,1.1c-15.1,0.6-30.4-1.9-38.6-6.4c-2.8-1.5-4-4.2-4-8.5c0-1.9,0.1-3.5,0.3-3.7s1.1,0.5,1.9,1.6C20.3,173.5,22.2,175.3,23.7,176.4z M227.4,178c-1.2,1.1-10.4,5.3-15.3,7c-9.1,3-17.7,4.4-25.9,4.1l-4.6-0.1l2.6-2.8c3.1-3.3,6-5,10.2-6c5.3-1.3,8.3-0.8,10.7,1.5c1.2,1.1,1.4,1.2,4.3,0.9c3.5-0.4,12.4-2.6,15.8-3.9C227.9,177.5,228,177.5,227.4,178z M148.5,181.3c1.8,0.6,5.3,2.4,8.3,4.5l5.2,3.4l-18.8-0.1c-16.2-0.1-19.1-0.2-21.1-0.9c-4.8-1.7-4.8-1.8,2.3-4.5c3.5-1.3,7.5-2.7,8.9-3.1C137.3,179.6,144.5,180,148.5,181.3z"/></g></g></g>
</svg>